<svg xmlns="http://www.w3.org/2000/svg" version="1.1" xmlns:xlink="http://www.w3.org/1999/xlink" xmlns:svgjs="http://svgjs.com/svgjs" width="512" height="512" x="0" y="0" viewBox="0 0 512 512" style="enable-background:new 0 0 512 512" xml:space="preserve" class=""><g><g xmlns="http://www.w3.org/2000/svg"><path d="m224 297h-96c-8.284 0-15 6.716-15 15s6.716 15 15 15h96c8.284 0 15-6.716 15-15s-6.716-15-15-15z" fill="#000000" data-original="#000000" class=""></path><path d="m200 361h-48c-8.284 0-15 6.716-15 15s6.716 15 15 15h48c8.284 0 15-6.716 15-15s-6.716-15-15-15z" fill="#000000" data-original="#000000" class=""></path><path d="m392 273c-14.401 0-28.212 2.573-41 7.281v-235.281c0-24.813-20.187-45-45-45h-261c-24.813 0-45 20.187-45 45v374c0 24.813 20.187 45 45 45h251.86c21.732 29.128 56.291 48 95.14 48 31.786 0 61.847-12.556 84.646-35.354 22.798-22.799 35.354-52.86 35.354-84.646 0-65.617-53.832-119-120-119zm-347 161c-8.271 0-15-6.729-15-15v-374c0-8.271 6.729-15 15-15h261c8.271 0 15 6.729 15 15v251.559c-29.113 21.713-48 56.412-48 95.441 0 14.77 2.666 28.921 7.528 42zm347 48c-30.7 0-57.819-15.801-73.823-39.783-.459-.902-1.002-1.752-1.627-2.538-8.58-13.834-13.55-30.179-13.55-47.679 0-49.075 39.925-89 89-89 49.626 0 90 39.925 90 89 0 48.785-41.215 90-90 90z" fill="#000000" data-original="#000000" class=""></path><path d="m410.607 393.305 17.565-24.934c4.771-6.772 3.148-16.13-3.624-20.901-6.773-4.771-16.131-3.148-20.901 3.624l-11.375 16.147-11.354-16.14c-4.766-6.774-14.123-8.402-20.899-3.638-6.776 4.767-8.405 14.123-3.638 20.899l17.538 24.93-21.182 30.068c-4.771 6.772-3.148 16.13 3.624 20.901 2.626 1.85 5.64 2.738 8.625 2.738 4.714 0 9.355-2.216 12.276-6.362l14.992-21.281 14.965 21.273c2.921 4.151 7.564 6.37 12.282 6.37 2.981 0 5.993-.887 8.617-2.732 6.776-4.767 8.405-14.123 3.638-20.899z" fill="#000000" data-original="#000000" class=""></path><path d="m215.088 158.647c9.83-9.941 15.912-23.595 15.912-38.647 0-30.327-24.673-55-55-55s-55 24.673-55 55c0 15.052 6.082 28.706 15.912 38.647-14.552 11.55-23.912 29.374-23.912 49.353v40c0 8.284 6.716 15 15 15h96c8.284 0 15-6.716 15-15v-40c0-19.979-9.36-37.803-23.912-49.353zm-64.088-38.647c0-13.785 11.215-25 25-25s25 11.215 25 25-11.215 25-25 25-25-11.215-25-25zm58 113h-66v-25c0-18.196 14.804-33 33-33s33 14.804 33 33z" fill="#000000" data-original="#000000" class=""></path></g></g></svg>